<svg width="13" height="13" viewBox="0 0 13 13" fill="none" xmlns="http://www.w3.org/2000/svg">
<path fill-rule="evenodd" clip-rule="evenodd" d="M7.6638 7.66379C6.23188 9.09571 3.91027 9.09571 2.47835 7.66379C1.04643 6.23187 1.04643 3.91027 2.47835 2.47834C3.91027 1.04642 6.23188 1.04642 7.6638 2.47834C9.09572 3.91027 9.09572 6.23187 7.6638 7.66379ZM8.10418 9.04675C6.14396 10.5461 3.32837 10.3994 1.53554 8.6066C-0.41708 6.65398 -0.41708 3.48816 1.53554 1.53553C3.48816 -0.417088 6.65399 -0.417088 8.60661 1.53553C10.3994 3.32828 10.5461 6.1437 9.04696 8.10391L12.6137 11.6706L11.6709 12.6134L8.10418 9.04675Z" fill="#999999"/>
</svg>
